<svg width="465" height="465" viewBox="0 0 465 465" fill="none" xmlns="http://www.w3.org/2000/svg">
    <circle cx="232.5" cy="232.5" r="232.5" fill="#FE8E01"/>
    <circle cx="233" cy="232" r="185" fill="black"/>
    <circle cx="233" cy="232" r="155" fill="#FE8E01"/>
    <mask id="path-4-inside-1_8_2" fill="white">
        <path d="M234.883 155.373C234.344 160.948 237.06 166.336 241.863 169.218L247.373 172.524C248.456 173.174 249.488 173.906 250.459 174.714L303.172 218.563C304.698 219.833 305.866 221.477 306.563 223.335C306.854 224.11 307.059 224.913 307.176 225.731L307.654 229.078C307.883 230.684 307.875 232.315 307.628 233.918L307.254 236.351C307.087 237.433 306.656 238.459 305.999 239.335C304.741 241.013 302.766 242 300.669 242H227.328C224.12 242 220.923 241.629 217.8 240.894C215.272 240.299 212.806 239.469 210.433 238.414L208.574 237.589C206.198 236.532 203.934 235.238 201.817 233.727C199.282 231.915 196.975 229.804 194.947 227.438L193.824 226.128C192.61 224.712 191.518 223.196 190.558 221.597C189.521 219.869 188.644 218.051 187.937 216.165L187.153 214.075C186.386 212.03 185.819 209.915 185.46 207.761L185.097 205.582C185.032 205.195 185 204.803 185 204.41V202.083C185 198.899 182.141 196.477 179 197L167 198H158.5H156.57C155.197 198 153.83 197.809 152.51 197.431C151.506 197.145 150.536 196.752 149.615 196.261L147.398 195.079C144.808 193.697 142.385 192.024 140.176 190.091L139.479 189.481C136.835 187.168 134.462 184.562 132.405 181.714L129 177L124.341 168.614C124.117 168.211 124 167.758 124 167.297C124 165.972 124.958 164.84 126.266 164.622L134.932 163.178C135.643 163.06 136.362 163 137.083 163H150.832C152.274 163 153.712 163.142 155.125 163.425L156.451 163.69C157.479 163.896 158.475 164.238 159.413 164.707L159.798 164.899C160.595 165.297 161.447 165.574 162.326 165.721C163.432 165.905 164.494 166.296 165.455 166.873L169 169L170.933 170.449C172.309 171.482 173.611 172.611 174.827 173.827L177.267 176.267C178.415 177.415 179.37 178.74 180.096 180.191L180.65 181.301C180.882 181.765 181.052 182.258 181.153 182.767L181.409 184.044C181.468 184.342 181.614 184.614 181.828 184.828C182.46 185.46 183.497 185.421 184.078 184.742L186 182.5L189 179C191.662 176.338 194.54 173.9 197.603 171.712L200 170L200.779 169.481C202.905 168.064 203.643 165.285 202.5 163L201 160L199 156L198 154L197 152L196 150L195 148L194.971 147.942C194.376 146.752 193.16 146 191.829 146C191.284 146 190.746 145.873 190.258 145.629L189 145L186.651 143.434C186.218 143.145 185.815 142.815 185.447 142.447C184.498 141.498 183.807 140.323 183.438 139.032L183 137.5L182.828 137.07C182.281 135.703 182 134.243 182 132.771C182 131.926 182.092 131.084 182.276 130.26L182.321 130.055C182.768 128.045 183.669 126.164 184.955 124.556L185 124.5L185.612 123.684C186.198 122.902 186.931 122.241 187.77 121.738C188.583 121.25 189.48 120.92 190.415 120.764L192 120.5L194.532 120.183C195.507 120.062 196.493 120.055 197.47 120.163C199.461 120.385 201.37 121.08 203.037 122.191L203.5 122.5L204.071 122.976C205.659 124.299 206.846 126.039 207.5 128L207.818 128.743C208.598 130.562 209 132.521 209 134.5V135.5C209 137.13 208.518 138.724 207.613 140.08L207.503 140.246C207.169 140.746 206.904 141.289 206.713 141.86C206.25 143.249 206.25 144.751 206.713 146.14C206.904 146.711 207.169 147.254 207.503 147.754L208 148.5C208.664 149.496 209.192 150.575 209.57 151.71L210 153L211 155.5L212.087 157.402C212.694 158.465 213.195 159.585 213.582 160.747L213.927 161.781C213.976 161.927 214.034 162.069 214.103 162.206C214.653 163.306 215.776 164 217.005 164H219.558C221.459 164 223 162.459 223 160.558C223 160.189 223.06 159.821 223.177 159.47L223.5 158.5C223.831 157.506 224 156.466 224 155.419V155.294C224 154.435 224.105 153.578 224.314 152.745L224.909 150.363C224.97 150.122 225 149.874 225 149.626V149.366C225 148.512 224.574 147.716 223.864 147.242C223.623 147.082 223.411 146.882 223.238 146.65L222.44 145.586C222.147 145.196 221.827 144.827 221.482 144.482L220.628 143.628C220.21 143.21 219.835 142.752 219.507 142.261C218.524 140.787 218 139.055 218 137.283V136.5V133.927C218 133.311 218.061 132.695 218.182 132.091L218.219131.903C218.405 130.975 218.749 130.085 219.236 129.273C219.741 128.431 220.393 127.686 221.159 127.073L222.5 126L223.637 125.188C225.195 124.075 226.97 123.306 228.847 122.931L229.178 122.864C230.385 122.623 231.623 122.578 232.844 122.731C234.269 122.909 235.647 123.353 236.907 124.04L238.588 124.957C239.846 125.644 240.933 126.606 241.766 127.772C242.578 128.91 243.13 130.213 243.38 131.589L243.773 133.752C243.924 134.582 244 135.424 244 136.268V136.608C244 137.532 243.887 138.454 243.662 139.351C243.227 141.092 242.384 142.704 241.202 144.055L240.131 145.279C239.712 145.758 239.243 146.193 238.733 146.575C236.673 148.12 235.359 150.46 235.111 153.023L234.883 155.373Z"/>
    </mask>
    <path d="M234.883 155.373C234.344 160.948 237.06 166.336 241.863 169.218L247.373 172.524C248.456 173.174 249.488 173.906 250.459 174.714L303.172 218.563C304.698 219.833 305.866 221.477 306.563 223.335C306.854 224.11 307.059 224.913 307.176 225.731L307.654 229.078C307.883 230.684 307.875 232.315 307.628 233.918L307.254 236.351C307.087 237.433 306.656 238.459 305.999 239.335C304.741 241.013 302.766 242 300.669 242H227.328C224.12 242 220.923 241.629 217.8 240.894C215.272 240.299 212.806 239.469 210.433 238.414L208.574 237.589C206.198 236.532 203.934 235.238 201.817 233.727C199.282 231.915 196.975 229.804 194.947 227.438L193.824 226.128C192.61 224.712 191.518 223.196 190.558 221.597C189.521 219.869 188.644 218.051 187.937 216.165L187.153 214.075C186.386 212.03 185.819 209.915 185.46 207.761L185.097 205.582C185.032 205.195 185 204.803 185 204.41V202.083C185 198.899 182.141 196.477 179 197L167 198H158.5H156.57C155.197 198 153.83 197.809 152.51 197.431C151.506 197.145 150.536 196.752 149.615 196.261L147.398 195.079C144.808 193.697 142.385 192.024 140.176 190.091L139.479 189.481C136.835 187.168 134.462 184.562 132.405 181.714L129 177L124.341 168.614C124.117 168.211 124 167.758 124 167.297C124 165.972 124.958 164.84 126.266 164.622L134.932 163.178C135.643 163.06 136.362 163 137.083 163H150.832C152.274 163 153.712 163.142 155.125 163.425L156.451 163.69C157.479 163.896 158.475 164.238 159.413 164.707L159.798 164.899C160.595 165.297 161.447 165.574 162.326 165.721C163.432 165.905 164.494 166.296 165.455 166.873L169 169L170.933 170.449C172.309 171.482 173.611 172.611 174.827 173.827L177.267 176.267C178.415 177.415 179.37 178.74 180.096 180.191L180.65 181.301C180.882 181.765 181.052 182.258 181.153 182.767L181.409 184.044C181.468 184.342 181.614 184.614 181.828 184.828C182.46 185.46 183.497 185.421 184.078 184.742L186 182.5L189 179C191.662 176.338 194.54 173.9 197.603 171.712L200 170L200.779 169.481C202.905 168.064 203.643 165.285 202.5 163L201 160L199 156L198 154L197 152L196 150L195 148L194.971 147.942C194.376 146.752 193.16 146 191.829 146C191.284 146 190.746 145.873 190.258 145.629L189 145L186.651 143.434C186.218 143.145 185.815 142.815 185.447 142.447C184.498 141.498 183.807 140.323 183.438 139.032L183 137.5L182.828 137.07C182.281 135.703 182 134.243 182 132.771C182 131.926 182.092 131.084 182.276 130.26L182.321 130.055C182.768 128.045 183.669 126.164 184.955 124.556L185 124.5L185.612 123.684C186.198 122.902 186.931 122.241 187.77 121.738C188.583 121.25 189.48 120.92 190.415 120.764L192 120.5L194.532 120.183C195.507 120.062 196.493 120.055 197.47 120.163C199.461 120.385 201.37 121.08 203.037 122.191L203.5 122.5L204.071 122.976C205.659 124.299 206.846 126.039 207.5 128L207.818 128.743C208.598 130.562 209 132.521 209 134.5V135.5C209 137.13 208.518 138.724 207.613 140.08L207.503 140.246C207.169 140.746 206.904 141.289 206.713 141.86C206.25 143.249 206.25 144.751 206.713 146.14C206.904 146.711 207.169 147.254 207.503 147.754L208 148.5C208.664 149.496 209.192 150.575 209.57 151.71L210 153L211 155.5L212.087 157.402C212.694 158.465 213.195 159.585 213.582 160.747L213.927 161.781C213.976 161.927 214.034 162.069 214.103 162.206C214.653 163.306 215.776 164 217.005 164H219.558C221.459 164 223 162.459 223 160.558C223 160.189 223.06 159.821 223.177 159.47L223.5 158.5C223.831 157.506 224 156.466 224 155.419V155.294C224 154.435 224.105 153.578 224.314 152.745L224.909150.363C224.97 150.122 225 149.874 225 149.626V149.366C225 148.512 224.574 147.716 223.864 147.242C223.623 147.082 223.411 146.882 223.238 146.65L222.44 145.586C222.147 145.196 221.827 144.827 221.482 144.482L220.628 143.628C220.21 143.21 219.835 142.752 219.507 142.261C218.524 140.787 218 139.055 218 137.283V136.5V133.927C218 133.311 218.061 132.695 218.182 132.091L218.219 131.903C218.405 130.975 218.749 130.085 219.236 129.273C219.741 128.431 220.393 127.686 221.159 127.073L222.5 126L223.637 125.188C225.195 124.075 226.97 123.306 228.847 122.931L229.178 122.864C230.385 122.623 231.623 122.578 232.844 122.731C234.269 122.909 235.647 123.353 236.907 124.04L238.588 124.957C239.846 125.644 240.933 126.606 241.766 127.772C242.578 128.91 243.13 130.213 243.38 131.589L243.773 133.752C243.924 134.582 244 135.424 244 136.268V136.608C244 137.532 243.887 138.454 243.662 139.351C243.227 141.092 242.384 142.704 241.202 144.055L240.131 145.279C239.712 145.758 239.243 146.193 238.733 146.575C236.673 148.12 235.359 150.46 235.111 153.023L234.883 155.373Z" fill="black" stroke="black" stroke-width="6" mask="url(#path-4-inside-1_8_2)"/>
    <path d="M176.82 231.391C177.082 228.21 181.233 227.178 182.954 229.867C183.2 230.252 183.487 230.609 183.81 230.932L188.049 235.17C191.391 238.512 195.178 241.379 199.302 243.688L203.226 245.886C204.999 246.878 206.861 247.702 208.789 248.344L212.528 249.591C213.342 249.862 214.194 250 215.051 250C217.637 250 219.792 251.979 220.012 254.555L234.216 420.698C235.093 430.96 226.882 439.713 216.593 439.502L197.228 437.516L177.866 433.544C167.801 430.52 161.216 420.868 162.079 410.388L176.82 231.391Z" fill="black" stroke="black" stroke-width="3"/>
</svg>